<?xml version="1.0" encoding="UTF-8"?>
<svg width="12px" height="8px" viewBox="0 0 12 8" version="1.1" xmlns="http://www.w3.org/2000/svg" xmlns:xlink="http://www.w3.org/1999/xlink">
    <!-- Generator: Sketch 58 (84663) - https://sketch.com -->
    <title>strzalek</title>
    <desc>Created with Sketch.</desc>
    <g id="Mobile-eval" stroke="none" stroke-width="1" fill="none" fill-rule="evenodd">
        <g id="eval" transform="translate(-344.000000, -801.000000)" fill="#D8D8D8" fill-rule="nonzero">
            <g id="Group-15" transform="translate(0.000000, 731.000000)">
                <g id="Group-13-Copy" transform="translate(0.000000, 45.000000)">
                    <path d="M346.101911,29.2576687 C346.03397,29.1922287 346,29.1104299 346,29.0122699 C346,28.8977499 346.03397,28.8077713 346.101911,28.7423313 L351.936306,23.1226994 C352.021232,23.0408994 352.114649,23 352.216561,23 C352.318472,23 352.411889,23.0408994 352.496815,23.1226994 L353.898089,24.4723926 C353.96603,24.5378326 354,24.6196314 354,24.7177914 C354,24.8323114 353.96603,24.9222901 353.898089,24.9877301 L349.719745,29.0122699 L353.898089,33.0122699 C353.96603,33.0940699 354,33.1840486 354,33.2822086 C354,33.3803686 353.96603,33.4621674 353.898089,33.5276074 L352.496815,34.8773006 C352.411889,34.9591006 352.318472,35 352.216561,35 C352.114649,35 352.021232,34.9591006 351.936306,34.8773006 L346.101911,29.2576687 Z" id="strzalek" transform="translate(350.000000, 29.000000) scale(-1, -1) rotate(-90.000000) translate(-350.000000, -29.000000) "></path>
                </g>
            </g>
        </g>
    </g>
</svg>