<?xml version="1.0" encoding="UTF-8"?>
<svg width="15px" height="15px" viewBox="0 0 15 15" version="1.1" xmlns="http://www.w3.org/2000/svg" xmlns:xlink="http://www.w3.org/1999/xlink">
    <!-- Generator: sketchtool 58 (101010) - https://sketch.com -->
    <title>88F4998E-8E30-4C1C-AFA4-43654C9F42B0</title>
    <desc>Created with sketchtool.</desc>
    <g id="Page-1" stroke="none" stroke-width="1" fill="none" fill-rule="evenodd">
        <g id="Course-Feedback-Create" transform="translate(-365.000000, -1520.000000)" fill="#02A5CE">
            <g id="Group-14" transform="translate(-1129.000000, 82.000000)">
                <g id="Group-4-Copy" transform="translate(1493.000000, 1401.000000)">
                    <g id="Group-8">
                        <path d="M9.72611867,41.111017 C9.58899445,41.2712309 9.41511529,41.3485105 9.21437674,41.3485105 C9.02212011,41.3485105 8.85813651,41.2707597 8.72101229,41.1199701 C8.58388808,40.9691806 8.51509036,40.8000136 8.51509036,40.6082282 C8.51509036,40.4027775 8.58388808,40.2246574 8.72101229,40.0696269 C8.85860773,39.9183662 9.02212011,39.8406153 9.21437674,39.8406153 C9.42406842,39.8406153 9.59794758,39.913654 9.7298884,40.0554904 C9.86748384,40.2015677 9.93109817,40.3664938 9.93109817,40.557808 C9.93109817,40.7679709 9.86277167,40.9508031 9.72611867,41.111017 Z M9.45187023,48.0459211 C9.10882408,48.1830454 8.83410443,48.2791737 8.6338371,48.3338349 C8.42838639,48.3884961 8.25497844,48.4162979 8.10842988,48.4162979 C7.81156302,48.4162979 7.58773483,48.338547 7.44118627,48.1825741 C7.29086797,48.0270725 7.21688686,47.8357583 7.21688686,47.6119301 C7.21688686,47.5242837 7.22207025,47.4338099 7.23997651,47.3419226 C7.25364181,47.2505064 7.27673145,47.1317597 7.30877422,46.9899233 L7.89779577,44.6192294 C7.92936733,44.4872885 7.95716915,44.3445097 7.98449975,44.1984324 C8.01183035,44.0481141 8.02549565,43.9246552 8.02549565,43.8200449 C8.02549565,43.6094108 7.99392409,43.4718154 7.92512637,43.4039601 C7.85679987,43.3351624 7.71496348,43.2984074 7.50527181,43.2984074 C7.42233758,43.2984074 7.31301518,43.312544 7.18060313,43.3394033 C7.0430077,43.362493 6.93886869,43.3855826 6.86959975,43.4039601 L6.95206277,43.0472487 C7.24421746,42.92002 7.50527181,42.8234205 7.73334096,42.7602774 C7.96612227,42.6957206 8.14424239,42.664149 8.28136661,42.664149 C8.58341686,42.664149 8.80677383,42.7367165 8.94389805,42.8827938 C9.08102226,43.0246302 9.14981998,43.2211278 9.14981998,43.4680456 C9.14981998,43.5363721 9.14086685,43.6273171 9.12720155,43.7422941 C9.11400747,43.8558574 9.09091783,43.969892 9.06311601,44.08911 L8.4698535,46.4598039 C8.43262734,46.6063525 8.40105579,46.7481889 8.37325397,46.8853131 C8.34592337,47.026207 8.32848833,47.141184 8.32848833,47.232129 C8.32848833,47.4422919 8.37796614,47.5883692 8.47409446,47.66612 C8.56598182,47.7438709 8.72101229,47.7848668 8.93070396,47.7848668 C8.9999729,47.7848668 9.09987095,47.7754424 9.23275422,47.752824 C9.36469504,47.7344465 9.46553553,47.7160691 9.53386203,47.6896809 L9.45187023,48.0459211 Z M13.8101585,39.1964614 C10.8768312,36.2678462 6.1302599,36.2678462 3.19646136,39.1964614 C0.267846212,42.1302599 0.267846212,46.87636 3.19646136,49.8049751 C6.1302599,52.7340615 10.8768312,52.7340615 13.8101585,49.8049751 C16.7383024,46.87636 16.7383024,42.1297887 13.8101585,39.1964614 L13.8101585,39.1964614 Z" id="i"></path>
                    </g>
                </g>
            </g>
        </g>
    </g>
</svg>