<?xml version="1.0" encoding="UTF-8"?>
<svg width="79px" height="29px" viewBox="0 0 79 29" version="1.1" xmlns="http://www.w3.org/2000/svg" xmlns:xlink="http://www.w3.org/1999/xlink">
    <!-- Generator: Sketch 58 (84663) - https://sketch.com -->
    <title>Thankyou</title>
    <desc>Created with Sketch.</desc>
    <g id="Page-1" stroke="none" stroke-width="1" fill="none" fill-rule="evenodd">
        <g id="Course-Feedback" transform="translate(-364.000000, -431.000000)" fill="#02A5CE" fill-rule="nonzero">
            <g id="Group-14" transform="translate(270.000000, 82.000000)">
                <g id="Group" transform="translate(94.000000, 106.000000)">
                    <path d="M0.69,264.58 C0.489999,264.58 0.3300006,264.505001 0.21,264.355 C0.0899994,264.204999 0.0200001,264.01 0,263.77 L0,263.56 C0.1000005,262.919997 0.2399991,262.240004 0.42,261.52 C0.9800028,259.299989 1.8099945,257.130011 2.91,255.01 L4.28250094,252.392502 C4.67749995,251.647502 5.00999865,251.030002 5.28,250.54 L5.94,249.52 L5.94,249.52 L6.14000038,249.326666 C6.23000029,249.243333 6.30499994,249.18 6.3649999,249.136667 L6.42,249.1 C6.5,249.04 6.5999994,249.01 6.72,249.01 C6.8600007,249.01 6.9799995,249.05 7.08,249.13 C7.3000011,249.290001 7.3600005,249.499999 7.26,249.76 L6.9,250.81 C6.6599988,251.390003 6.3700017,252.039996 6.03,252.76 C4.9499946,255.080012 3.810006,257.829984 2.61,261.01 L2.27159934,261.8398 C2.09559947,262.261799 1.93960018,262.618799 1.80360027,262.910799 L1.65,263.23 C1.5299994,263.470001 1.4600001,263.659999 1.44,263.8 C1.4199999,264.060001 1.34500065,264.259999 1.215,264.4 C1.08499935,264.540001 0.9100011,264.6 0.69,264.58 Z M0.51,250.36 C0.3699993,250.36 0.2300007,250.290001 0.09,250.15 C0.0299997,250.05 0,249.95 0,249.85 C0,249.729999 0.0299997,249.63 0.09,249.55 C0.1500003,249.409999 0.2599992,249.290001 0.42,249.19 C0.7800018,248.909999 1.1699979,248.700001 1.59,248.56 C3.5700099,247.779996 5.459991,247.280001 7.26,247.06 L7.986125,246.979796 C9.38204625,246.830407 10.4399964,246.747143 11.16,246.73 L11.523334,246.696667 C11.7411116,246.678889 11.9099994,246.67 12.03,246.67 C12.230001,246.67 12.4899984,246.69 12.81,246.73 C13.010001,246.75 13.1999991,246.81 13.38,246.91 C13.5200007,246.99 13.6249997,247.104999 13.695,247.255 C13.7650004,247.405001 13.7800002,247.549999 13.74,247.69 C13.6511107,247.992224 13.4674087,248.168025 13.1888893,248.217407 L12.585,248.29 L12.585,248.29 L12.3337498,248.3125 C12.26125,248.3175 12.2000002,248.32 12.15,248.32 L9.96319221,248.517574 C8.73952307,248.633551 7.75846523,248.737692 7.02,248.83 C5.3199915,249.070001 3.4800099,249.489997 1.5,250.09 C1.299999,250.13 1.0200018,250.209999 0.66,250.33 L0.51,250.36 Z M5.97,262.54 C5.6099982,262.419999 5.4100002,262.150002 5.37,261.73 C5.3499999,261.65 5.34,261.540001 5.34,261.4 C5.34,261.219999 5.3699997,261.040001 5.43,260.86 C5.5100004,260.459998 5.6899986,259.880004 5.97,259.12 C8.1500109,253.939974 10.2299901,249.530018 12.21,245.89 C12.4900014,245.369997 12.7699986,244.910002 13.05,244.51 L13.47,243.82 C13.5300003,243.699999 13.6299993,243.580001 13.77,243.46 C13.9300008,243.36 14.0799993,243.31 14.22,243.31 C14.3800008,243.31 14.5249993,243.369999 14.655,243.49 C14.7850006,243.610001 14.8599999,243.769999 14.88,243.97 L14.8673438,244.0825 C14.8532814,244.182499 14.8275002,244.344999 14.79,244.57 C14.5699989,245.410004 14.160003,246.479994 13.56,247.78 L12.39,250.3 L11.9249985,251.265003 C11.2499976,252.675005 10.6762516,253.916246 10.2037505,254.988749 L8.94,257.92 C8.8999998,257.96 8.8600002,258.059999 8.82,258.22 C8.9200005,258.18 8.99499975,258.13 9.045,258.07 L9.15,257.95 L9.15,257.95 L9.81,257.29 L10.4455571,256.62185 C11.166298,255.871726 11.8144416,255.224447 12.39,254.68 C12.8900025,254.219998 13.2699987,253.900001 13.53,253.72 C13.8500016,253.519999 14.1699984,253.42 14.49,253.42 C14.8100016,253.42 15.0949987,253.529999 15.345,253.75 C15.5950012,253.970001 15.7599996,254.269998 15.84,254.65 C15.8600001,254.75 15.87,254.899999 15.87,255.1 C15.87,255.380001 15.84,255.659999 15.78,255.94 C15.7199997,256.220001 15.590001,256.639997 15.39,257.2 C14.856664,258.604451 14.2759282,259.84296 13.6477786,260.915554 L13.3594215,261.391322 C13.2567773,261.55347 13.0336381,261.896361 12.69,262.42 C12.5099991,262.660001 12.2700015,262.78 11.97,262.78 C11.7899991,262.78 11.6300007,262.730001 11.49,262.63 C11.3499993,262.53 11.2500003,262.390001 11.19,262.21 C11.1099996,262.049999 11.07,261.860001 11.07,261.64 C11.07,261.519999 11.0899998,261.340001 11.13,261.1 C11.2500006,260.679998 11.4299988,260.270002 11.67,259.87 C12.3300033,258.769994 12.9799968,257.330009 13.62,255.55 C13.6600002,255.47 13.6999998,255.350001 13.74,255.19 C13.7533334,255.176667 13.7600001,255.163333 13.76,255.15 L13.755,255.13 C13.7449999,255.11 13.74,255.09 13.74,255.07 C13.6759997,255.086 13.5736005,255.1404 13.4328003,255.2332 L13.32,255.31 C13.0799988,255.470001 12.6400032,255.849997 12,256.45 C10.2461451,258.203855 8.80757756,259.812835 7.68426134,261.276981 L7.28666671,261.803333 C7.1888892,261.927777 7.0600008,262.083332 6.9,262.27 C6.6799989,262.490001 6.4600011,262.6 6.24,262.6 C6.1799997,262.6 6.0900006,262.58 5.97,262.54 Z M20.79,262.81 C20.6099991,262.75 20.4700005,262.645001 20.37,262.495 C20.27,262.344999 20.22,262.160001 20.22,261.94 C20.22,261.319997 20.3299989,260.760002 20.55,260.26 L21.39,258.49 L21.6,258.07 C21.5599998,258.07 21.54,258.05 21.54,258.01 L21.12,258.46 C20.119995,259.580006 18.9900063,260.599995 17.73,261.52 C17.3624982,261.782501 17.0868752,261.953125 16.9031252,262.031875 L16.83,262.06 C16.6699992,262.14 16.490001,262.18 16.29,262.18 C16.0299987,262.18 15.8100009,262.095001 15.63,261.925 C15.4499991,261.754999 15.3400002,261.520002 15.3,261.22 C15.2799999,261.16 15.27,261.070001 15.27,260.95 C15.27,260.883333 15.2766666,260.807778 15.2899999,260.723334 L15.315,260.59 C15.3450001,260.449999 15.36,260.35 15.36,260.29 C15.4433337,259.923331 15.5891658,259.515001 15.7974995,259.065001 L15.93,258.79 C16.6700037,257.229992 17.6899935,255.670008 18.99,254.11 C19.3300017,253.689998 19.7299977,253.310002 20.19,252.97 C20.4500013,252.769999 20.77,252.620001 21.15,252.52 C21.2300004,252.5 21.3299994,252.49 21.45,252.49 C22.0100028,252.49 22.4099988,252.739998 22.65,253.24 C22.7900007,253.540002 22.86,253.869998 22.86,254.23 C22.86,254.410001 22.8500001,254.55 22.83,254.65 L22.8233334,254.75 C22.8211111,254.77 22.8183333,254.791667 22.815,254.815 C22.8049999,254.885 22.8099999,254.97 22.83,255.07 L22.9034693,255.012449 C22.9830609,254.945102 23.1085706,254.829287 23.28,254.665 C23.5200012,254.434999 23.7199992,254.200001 23.88,253.96 C24.2000016,253.479998 24.4499991,253.130001 24.63,252.91 C24.830001,252.669999 25.029999,252.490001 25.23,252.37 C25.3700007,252.29 25.5199992,252.25 25.68,252.25 C25.8200007,252.25 25.9599993,252.29 26.1,252.37 C26.3275011,252.527501 26.4401567,252.746249 26.4380001,253.02625 L26.43,253.15 C26.43,253.390001 26.3600007,253.649999 26.22,253.93 L25.7924997,254.770001 C25.6675001,255.01 25.5600005,255.209999 25.47,255.37 L24.7824003,256.697204 C23.981601,258.254805 23.3260024,259.575774 22.8156006,260.660132 L22.68,260.95 C22.5399993,261.270002 22.3600011,261.584998 22.14,261.895 L21.72,262.48 L21.72,262.48 C21.5999994,262.620001 21.4550008,262.72 21.285,262.78 C21.1149991,262.84 20.9500008,262.85 20.79,262.81 Z M18.03,259.84 C18.6700032,259.399998 19.2699972,258.900003 19.83,258.34 L20.2650007,257.895624 C20.7150002,257.426875 21.2099973,256.885003 21.75,256.27 C21.8100003,256.21 21.8300001,256.14 21.81,256.06 C21.7619998,255.931999 21.7363999,255.775201 21.7332,255.5896 L21.75,254.86 L21.75,254.86 C21.75,254.519998 21.7100004,254.250001 21.63,254.05 C21.325788,254.264738 20.7453916,255.027847 19.8887963,256.339347 L19.575,256.825 C18.5449949,258.435008 17.9900004,259.459998 17.91,259.9 L18.03,259.84 Z M26.82,262.12 C26.6599992,262.2 26.4900009,262.24 26.31,262.24 C25.8299976,262.24 25.5000009,261.990003 25.32,261.49 C25.2599997,261.349999 25.23,261.130001 25.23,260.83 C25.23,260.449998 25.3199991,259.990003 25.5,259.45 C26.0400027,257.889992 26.8199949,256.450007 27.84,255.13 L28.32,254.62 C28.520001,254.459999 28.6699995,254.36 28.77,254.32 C28.970001,254.24 29.1099996,254.2 29.19,254.2 C29.3500008,254.2 29.5099992,254.259999 29.67,254.38 C29.8300008,254.52 29.91,254.699999 29.91,254.92 C29.91,254.98 29.8900002,255.089999 29.85,255.25 C29.73,255.590002 29.5500012,255.999998 29.31,256.48 L28.994399,257.052402 C28.6007986,257.778802 28.3160009,258.357998 28.14,258.79 C28.0399995,258.930001 27.9999999,259.05 28.02,259.15 C28.0840003,259.134 28.1671997,259.0796 28.2695998,258.9868 L32.13,255.34 L33.7045312,253.916875 L33.7045312,253.916875 L34.2,253.51 C34.6600023,253.109998 35.1699972,252.820001 35.73,252.64 C35.9700012,252.56 36.1499994,252.52 36.27,252.52 C36.5500014,252.52 36.784999,252.619999 36.975,252.82 C37.165001,253.02 37.2699999,253.289998 37.29,253.63 L37.29,253.87 C37.29,253.990001 37.2700002,254.189999 37.23,254.47 C37.0699992,255.270004 36.73,256.239994 36.21,257.38 L35.1,259.72 C34.9399992,260.120002 34.7250013,260.514998 34.455,260.905 L33.93,261.67 L33.93,261.67 C33.7499991,261.910001 33.5400012,262.03 33.3,262.03 C33.2549998,262.03 33.1931252,262.01875 33.1143752,261.99625 L33.03,261.97 C32.8499991,261.93 32.7050005,261.840001 32.595,261.7 C32.4849995,261.559999 32.4200001,261.400001 32.4,261.22 L32.4,261.13 C32.4,261.017999 32.4255997,260.874001 32.4767998,260.698 L32.52,260.56 C32.7540012,259.749996 33.1499976,258.786104 33.7079992,257.668301 L34.0950005,256.896249 C34.2750006,256.528749 34.4099996,256.240001 34.5,256.03 L35.25,254.44 C35.25,254.42 35.2649998,254.385 35.295,254.335 C35.3250001,254.285 35.3300001,254.210001 35.31,254.11 L34.995,254.335 C34.8649993,254.425 34.7600004,254.51 34.68,254.59 C33.7399953,255.310004 32.770005,256.189995 31.77,257.23 L30.42,258.64 L28.32,260.8 L28.1191836,261.010612 C27.9657146,261.165714 27.7730624,261.350203 27.5412251,261.564081 L27.36,261.73 C27.1799991,261.910001 27.0000009,262.04 26.82,262.12 Z M36.12,263.44 C35.8199985,263.299999 35.7199995,263.050002 35.82,262.69 C35.82,262.61 35.8399998,262.525 35.88,262.435 L35.9466667,262.288333 C35.9555555,262.269444 35.9633333,262.253333 35.97,262.24 C36.2900016,261.259995 36.6799977,260.350004 37.14,259.51 C38.2600056,257.329989 39.319995,255.020012 40.32,252.58 C41.0800038,250.819991 42.0699939,248.750012 43.29,246.37 C43.3700004,246.189999 43.5599985,245.840003 43.86,245.32 C43.9200003,245.16 44.0299992,245.020001 44.19,244.9 C44.2900005,244.8 44.3999994,244.73 44.52,244.69 C44.6400006,244.65 44.7599994,244.65 44.88,244.69 C45.1000011,244.77 45.2299998,244.949999 45.27,245.23 C45.27,245.350001 45.2531252,245.475625 45.2193751,245.606875 L45.18,245.74 C44.8199982,247.000006 44.2800036,248.479991 43.56,250.18 L43.02,251.5 L41.8637327,254.273335 C41.6216,254.86 41.4146674,255.366665 41.2429336,255.793333 L41.1,256.15 C41.2200006,256.09 41.3099997,256.015 41.37,255.925 L41.47125,255.781562 L41.47125,255.781562 L41.49,255.76 C42.0100026,255.16 42.5099976,254.700002 42.99,254.38 C43.1100006,254.259999 43.2499992,254.17 43.41,254.11 C43.5700008,254.05 43.7099994,254.02 43.83,254.02 C44.0100009,254.02 44.1649994,254.084999 44.295,254.215 C44.4250007,254.345001 44.4800001,254.519999 44.46,254.74 C44.46,255.060002 44.3500011,255.379998 44.13,255.7 C43.8299985,256.140002 43.4500023,256.559998 42.99,256.96 C42.3099966,257.560003 41.7100026,258.049998 41.19,258.43 C41.0099991,258.590001 40.92,258.7 40.92,258.76 C40.92,258.82 40.9599996,258.919999 41.04,259.06 C41.3777795,259.717781 41.541729,260.446664 41.531852,261.246666 L41.52,261.55 C41.52,261.690001 41.5000002,261.79 41.46,261.85 C41.4399999,262.010001 41.3700006,262.144999 41.25,262.255 C41.1299994,262.365001 40.9900008,262.42 40.83,262.42 L40.77,262.42 C40.6299993,262.42 40.5100005,262.38 40.41,262.3 C40.3099995,262.22 40.26,262.110001 40.26,261.97 C40.2199998,261.669999 40.1250007,261.355002 39.975,261.025 L39.8165998,260.665 C39.7481999,260.503 39.6960002,260.368001 39.66,260.26 C39.6199998,260.22 39.6,260.19 39.6,260.17 C39.4999995,259.969999 39.3900006,259.87 39.27,259.87 C39.1899996,259.89 39.1350002,259.949999 39.105,260.05 L39.06375,260.17 C39.0575,260.185 39.0515625,260.1975 39.0459375,260.2075 L38.8068744,260.595626 C38.6006244,260.936876 38.4450005,261.204999 38.34,261.4 L37.89,262.18 C37.7899995,262.360001 37.6200012,262.609998 37.38,262.93 C37.2199992,263.130001 37.0800006,263.27 36.96,263.35 C36.759999,263.490001 36.5900007,263.56 36.45,263.56 C36.3899997,263.56 36.2800008,263.52 36.12,263.44 Z M51.45,271.36 C50.9099973,271.32 50.4900015,271.145002 50.19,270.835 C49.8899985,270.524998 49.7300001,270.100003 49.71,269.56 C49.6899999,268.819996 49.8599982,268.130003 50.22,267.49 C51.2600052,265.749991 52.479993,264.380005 53.88,263.38 C54.7709135,262.743633 55.7196656,262.363471 56.7262798,262.239504 L57.03,262.21 C57.230001,262.21 57.3699996,262.120001 57.45,261.94 C58.0300029,260.679994 58.6399968,259.190009 59.28,257.47 C59.3000001,257.45 59.31,257.4 59.31,257.32 L58.95,257.65 L58.2,258.49 L58.2,258.49 L57.0290797,259.727502 C56.3954071,260.389644 55.8857162,260.907141 55.5,261.28 L54.9750005,261.7525 C54.7650011,261.937499 54.5200014,262.149999 54.24,262.39 C53.9799987,262.590001 53.7300012,262.74 53.49,262.84 C53.3099991,262.9 53.1400008,262.93 52.98,262.93 C52.579998,262.93 52.2500013,262.740002 51.99,262.36 C51.7699989,262.039998 51.6400002,261.620003 51.6,261.1 C51.5599998,260.619998 51.6499989,260.000004 51.87,259.24 C52.4300028,257.639992 53.2399947,256.100007 54.3,254.62 L54.4728001,254.422 C54.5016,254.39 54.5239999,254.366 54.54,254.35 C54.6000003,254.25 54.6699996,254.19 54.75,254.17 C54.950001,254.049999 55.1099994,253.99 55.23,253.99 C55.3700007,253.99 55.4899995,254.03 55.59,254.11 C55.8500013,254.250001 55.98,254.489998 55.98,254.83 C55.98,254.990001 55.9400004,255.189999 55.86,255.43 C55.6799991,255.950003 55.4500014,256.479997 55.17,257.02 L54.7327798,257.987103 C54.2842588,258.997755 53.960001,259.795382 53.76,260.38 C53.6399994,260.740002 53.5700001,261.029999 53.55,261.25 C53.6500005,261.25 53.7349997,261.22 53.805,261.16 L53.94,261.04 L53.94,261.04 C54.540003,260.599998 55.0899975,260.130002 55.59,259.63 L56.1352744,259.119179 C56.9792583,258.309727 58.0674933,257.190007 59.4,255.76 L60.24,254.89 C60.5200014,254.629999 60.7399992,254.390001 60.9,254.17 L60.99,254.02 C61.2900015,253.659998 61.5899985,253.539999 61.89,253.66 C62.0700009,253.72 62.2049996,253.834999 62.295,254.005 C62.3670004,254.141001 62.4038002,254.293 62.4054001,254.461 L62.4,254.59 C62.4,254.790001 62.3300007,255.169997 62.19,255.73 L61.9031254,256.565312 C61.696876,257.155935 61.4125018,257.957495 61.05,258.97 L60.6777545,259.964288 C60.3716323,260.764287 60.0757157,261.492854 59.79,262.15 C59.7299997,262.270001 59.7,262.35 59.7,262.39 C59.7,262.44 59.7624994,262.49 59.8874997,262.54 L59.97,262.57 C60.370002,262.710001 60.6899988,262.859999 60.93,263.02 C61.3900023,263.300001 61.6799994,263.739997 61.8,264.34 C61.8400002,264.44 61.8400002,264.549999 61.8,264.67 C61.8,264.850001 61.700001,264.96 61.5,265 L61.44,265 C61.3199994,265 61.2100005,264.930001 61.11,264.79 L61.02,264.52 C60.9399996,264.079998 60.6700023,263.760001 60.21,263.56 L60.12,263.53 L59.8781243,263.425 C59.6643741,263.335 59.5350002,263.29 59.49,263.29 C59.3899995,263.29 59.3000004,263.349999 59.22,263.47 C59.1399996,263.590001 59.0600004,263.749999 58.98,263.95 L58.5674992,264.820002 C58.1624993,265.660002 57.7800018,266.409997 57.42,267.07 C56.8399971,268.030005 56.2000035,268.849997 55.5,269.53 C54.7999965,270.190003 54.1000035,270.669999 53.4,270.97 C52.7199966,271.250001 52.0700031,271.38 51.45,271.36 Z M51.63,269.86 C52.1900028,269.719999 52.7199975,269.420002 53.22,268.96 C53.6142877,268.599998 54.0012234,268.151839 54.3808158,267.615511 L54.57,267.34 C55.29,266.319995 56.0199963,265.020008 56.76,263.44 C56.76,263.42 56.7749999,263.385 56.805,263.335 C56.8350002,263.285 56.8400001,263.24 56.82,263.2 L56.7,263.17 C56.6399997,263.17 56.5500006,263.19 56.43,263.23 C55.6899963,263.410001 55.0400028,263.709998 54.48,264.13 C53.1599934,265.090005 52.0700043,266.309993 51.21,267.79 C50.9699988,268.17 50.8300002,268.639997 50.79,269.2 C50.79,269.480001 50.8199997,269.67 50.88,269.77 C50.9400003,269.870001 51.0499992,269.92 51.21,269.92 C51.3700008,269.92 51.5099994,269.9 51.63,269.86 Z M64.89,262.27 C64.6299987,262.410001 64.3800012,262.48 64.14,262.48 C63.6799977,262.48 63.3200013,262.260002 63.06,261.82 C62.7999987,261.359998 62.67,260.840003 62.67,260.26 C62.67,259.799998 62.7499992,259.31 62.91,258.79 C63.4500027,257.029991 64.3499937,255.460007 65.61,254.08 C65.7100005,253.939999 65.76,253.86 65.76,253.84 C66.0400014,253.319997 66.5099967,252.890002 67.17,252.55 C67.2900006,252.475 67.39875,252.4225 67.4962499,252.3925 L67.59,252.37 C67.7500008,252.33 67.8799995,252.31 67.98,252.31 C68.4400023,252.31 68.7799989,252.549998 69,253.03 C69.1000005,253.270001 69.15,253.559998 69.15,253.9 L69.1452,254.1352 C69.1404,254.2384 69.1320001,254.32 69.12,254.38 C69.0599997,254.820002 68.9500008,255.31 68.79,255.85 C68.17,257.650009 67.4000046,259.199994 66.48,260.5 L66.1949993,260.891876 C65.9249993,261.255626 65.7000009,261.534999 65.52,261.73 C65.2599987,261.990001 65.0500008,262.17 64.89,262.27 Z M64.62,260.56 C64.9000014,260.319999 65.139999,260.060001 65.34,259.78 C66.3600051,258.419993 67.169997,256.840009 67.77,255.04 C67.8500004,254.779999 67.9099998,254.490002 67.95,254.17 C67.97,254.11 67.9750001,254.03 67.965,253.93 C67.955,253.829999 67.95,253.75 67.95,253.69 C67.9099998,253.53 67.8300006,253.49 67.71,253.57 C67.4499987,253.690001 67.2100011,253.829999 66.99,253.99 C66.9099996,254.07 66.8799999,254.15 66.9,254.23 L66.93,254.38 C66.93,254.480001 66.9000003,254.589999 66.84,254.71 L66.7649999,254.8675 C66.745,254.9125 66.7300001,254.95 66.72,254.98 L66.27,255.85 C65.5733299,257.261674 65.0867366,258.446455 64.8102085,259.404374 L64.74,259.66 C64.6399995,259.980002 64.5999999,260.279999 64.62,260.56 Z M73.59,263.41 C73.2299982,263.249999 73.0200003,262.970002 72.96,262.57 L72.96,262.45 C72.96,262.249999 72.9999996,261.970002 73.08,261.61 C73.4000016,260.429994 73.8799968,259.150007 74.52,257.77 L74.7,257.32 C74.5999995,257.36 74.5000005,257.459999 74.4,257.62 C73.799997,258.320003 73.1700033,259.119996 72.51,260.02 C72.1699983,260.480002 71.8500015,260.839999 71.55,261.1 C71.2899987,261.360001 71.0500011,261.549999 70.83,261.67 C70.5899988,261.790001 70.370001,261.85 70.17,261.85 C69.8699985,261.85 69.6100011,261.750001 69.39,261.55 C69.1699989,261.349999 69.0300003,261.080002 68.97,260.74 C68.9299998,260.499999 68.91,260.310001 68.91,260.17 C68.91,259.909999 68.9399997,259.660001 69,259.42 C69.3200016,257.639991 70.0399944,255.990008 71.16,254.47 C71.4400014,254.089998 71.7499983,253.790001 72.09,253.57 C72.3100011,253.409999 72.5399988,253.33 72.78,253.33 C73.0200012,253.364286 73.2012244,253.464693 73.3236734,253.631224 L73.38,253.72 C73.4400003,253.8 73.47,253.899999 73.47,254.02 C73.47,254.140001 73.4200005,254.269999 73.32,254.41 C72.719997,255.170004 72.225002,255.994996 71.835,256.885 C71.444998,257.775004 71.0900016,258.789994 70.77,259.93 C70.7099997,260.090001 70.6999998,260.2 70.74,260.26 C70.8600006,260.22 70.9999992,260.100001 71.16,259.9 C71.960004,259.079996 72.8999946,258.020007 73.98,256.72 L74.3088898,256.318517 C74.6718529,255.879505 74.9622211,255.543335 75.18,255.31 L77.19,252.82 C77.41,252.519998 77.6599986,252.429999 77.94,252.55 C78.2400015,252.650001 78.3700002,252.889998 78.33,253.27 C78.3099999,253.410001 78.2400006,253.669998 78.12,254.05 C77.5399971,255.770009 76.9600029,257.369993 76.38,258.85 C75.9399978,259.950005 75.5600016,261.009995 75.24,262.03 L74.97,262.75 C74.8899996,262.930001 74.7700008,263.079999 74.61,263.2 C74.41,263.380001 74.1900012,263.47 73.95,263.47 C73.7899992,263.47 73.6700004,263.45 73.59,263.41 Z" id="Thankyou"></path>
                </g>
            </g>
        </g>
    </g>
</svg>